<?xml version="1.0" encoding="utf-8"?>
<!-- Generator: Adobe Illustrator 16.0.0, SVG Export Plug-In . SVG Version: 6.00 Build 0)  -->
<!DOCTYPE svg PUBLIC "-//W3C//DTD SVG 1.1//EN" "http://www.w3.org/Graphics/SVG/1.1/DTD/svg11.dtd">
<svg version="1.1" id="Layer_1" xmlns="http://www.w3.org/2000/svg" xmlns:xlink="http://www.w3.org/1999/xlink" x="0px" y="0px"
	 width="146.572px" height="94.573px" viewBox="0 0 146.572 94.573" enable-background="new 0 0 146.572 94.573"
	 xml:space="preserve">
<g>
	<g>
		<polygon fill="#CC2B91" points="0,25.437 130.715,46.383 129.274,67.675 		"/>
	</g>
	<g>
		<polygon fill="#AE208E" points="0,25.437 118.985,90.95 129.274,67.675 		"/>
	</g>
	<polygon fill="#8D288D" points="63.401,3.583 84.66,16.274 88.698,23.607 	"/>
	<polygon fill="#8D288D" points="16.284,45.48 38.822,55.731 43.651,62.569 	"/>
	<polygon fill="#B165A9" points="82.027,20.657 88.698,23.607 63.401,3.583 	"/>
	<polygon fill="#B165A9" points="36.694,60.381 43.651,62.569 16.284,45.48 	"/>
	<polygon fill="#B8509E" points="36.42,28.84 61,28.45 66.776,35.329 	"/>
	<polygon fill="#8D288D" points="65.439,37.595 71.371,36.923 40.535,33.346 	"/>
	<polygon fill="#8D288D" points="89.028,19.332 125.822,39.02 90.403,23.361 	"/>
	<polygon fill="#AE208E" points="30.865,68.941 118.571,91.885 129.274,67.675 	"/>
	<polygon fill="#B8509E" points="58.739,80.397 81.306,78.759 95.008,86.762 	"/>
	<polygon fill="#8D288D" points="85.678,88.36 95.008,86.762 58.464,80.315 	"/>
	<polygon fill="#6A2877" points="48.216,57.626 82.399,55.215 58.446,62.147 	"/>
	<polygon fill="#8D288D" points="49.163,38.087 80.885,41.701 104.93,84.056 	"/>
	<polygon fill="#CC2B91" points="30.865,68.941 121.827,45.833 129.274,67.675 	"/>
	<polygon fill="#AE208E" points="107.988,89.556 62.769,19.326 120.695,92.573 	"/>
	<polygon fill="#CC2B91" points="120.695,92.573 62.769,19.326 134.146,88.812 	"/>
	<polygon fill="#DD4598" points="134.146,88.812 62.769,19.326 144.089,76.911 	"/>
	<polygon fill="#AE208E" points="62.769,19.326 125.362,41.003 140.053,47.217 146.572,63.448 	"/>
	<polygon fill="#CC2B91" points="144.089,76.911 146.572,63.448 62.769,19.326 	"/>
	<polygon fill="#B165A9" points="87.242,28.165 90.403,23.361 125.822,39.02 	"/>
</g>
</svg>
