<?xml version="1.0" encoding="utf-8"?>
<!-- Generator: Adobe Illustrator 16.0.0, SVG Export Plug-In . SVG Version: 6.00 Build 0)  -->
<!DOCTYPE svg PUBLIC "-//W3C//DTD SVG 1.0//EN" "http://www.w3.org/TR/2001/REC-SVG-20010904/DTD/svg10.dtd">
<svg version="1.0" id="Layer_1" xmlns="http://www.w3.org/2000/svg" xmlns:xlink="http://www.w3.org/1999/xlink" x="0px" y="0px"
	 width="300px" height="300px" viewBox="-100 -95 300 300" enable-background="new -100 -95 300 300" xml:space="preserve">
<rect x="-100" y="-95" opacity="0.2" fill="#B209FC" width="37.167" height="300"/>
<rect x="-62.965" y="-95" opacity="0.4" fill="#B209FC" width="57.153" height="300"/>
<rect x="-5.813" y="-95" opacity="0.3" fill="#B209FC" width="111.646" height="300"/>
<rect x="105.833" y="-95" opacity="0.2" fill="#B209FC" width="42" height="300"/>
<rect x="147.833" y="-95" opacity="0.3" fill="#B209FC" width="52.167" height="300"/>
<g transform="rotate(-23.5 50 50)">
	<circle cx="50" cy="40" r="40" fill="#ec84e8" stroke="#b209fc" stroke-width="2">
	</circle>
	<ellipse cx="50" cy="40" ry="0.1" fill="none" rx="40" stroke="#b209fc" stroke-width="2">
	</ellipse>
	<ellipse cx="50" cy="40" fill="none" ry="40" stroke="#b209fc" stroke-width="3" rx="39.792">
		<animate attributeName="rx" calcMode="linear" values="40;0;40" keyTimes="0;0.5;1" dur="1" begin="0s" repeatCount="indefinite"></animate>
	</ellipse>
	<ellipse cx="50" cy="40" fill="none" ry="40" stroke="#b209fc" stroke-width="3" rx="13.568">
		<animate attributeName="rx" calcMode="linear" values="40;0;40" keyTimes="0;0.5;1" dur="1" begin="-0.333s" repeatCount="indefinite"></animate>
	</ellipse>
	<ellipse cx="50" cy="40" fill="none" ry="40" stroke="#b209fc" stroke-width="3" rx="13.128">
		<animate attributeName="rx" calcMode="linear" values="40;0;40" keyTimes="0;0.5;1" dur="1" begin="-0.6667s" repeatCount="indefinite"></animate>
	</ellipse>
</g>
<g>
	<path fill="#B209FC" d="M-25,110.41c0-0.104,0.037-0.195,0.112-0.279c0.075-0.081,0.17-0.122,0.29-0.122h10.432
		c0.12,0,0.216,0.041,0.291,0.122c0.074,0.084,0.112,0.176,0.112,0.279v0.717c0,0.281-0.134,0.426-0.402,0.426h-10.432
		c-0.12,0-0.215-0.045-0.29-0.125c-0.075-0.08-0.112-0.184-0.112-0.301V110.41z M-20.265,113.181c0-0.12,0.041-0.215,0.124-0.291
		c0.082-0.074,0.182-0.109,0.301-0.109h0.894c0.118,0,0.215,0.035,0.291,0.109c0.074,0.076,0.112,0.171,0.112,0.291v7.952
		c0,0.118-0.038,0.218-0.112,0.293c-0.075,0.072-0.172,0.11-0.291,0.11h-0.894c-0.12,0-0.22-0.038-0.301-0.11
		c-0.083-0.075-0.124-0.175-0.124-0.293V113.181z"/>
	<path fill="#B209FC" d="M-9.117,119.993h7.929c0.104,0,0.197,0.04,0.279,0.124c0.083,0.081,0.123,0.18,0.123,0.3v0.716
		c0,0.104-0.04,0.198-0.123,0.277c-0.083,0.086-0.175,0.126-0.279,0.126h-9.248c-0.104,0-0.198-0.04-0.279-0.126
		c-0.082-0.079-0.124-0.173-0.124-0.277v-10.699c0-0.12,0.042-0.219,0.124-0.303c0.081-0.081,0.175-0.122,0.279-0.122H-1.3
		c0.119,0,0.22,0.041,0.302,0.122c0.082,0.084,0.123,0.183,0.123,0.303v0.714c0,0.105-0.041,0.2-0.123,0.28
		c-0.083,0.08-0.183,0.125-0.302,0.125h-7.817V119.993z M-7.89,115.17c0-0.118,0.038-0.219,0.112-0.293
		c0.073-0.072,0.17-0.11,0.29-0.11h5.607c0.104,0,0.197,0.038,0.279,0.11c0.081,0.074,0.123,0.175,0.123,0.293v0.69
		c0,0.119-0.042,0.218-0.123,0.292c-0.082,0.072-0.175,0.112-0.279,0.112h-5.607c-0.119,0-0.216-0.04-0.29-0.112
		c-0.075-0.074-0.112-0.173-0.112-0.292V115.17z"/>
	<path fill="#B209FC" d="M3.189,111.237c0-0.27,0.112-0.539,0.335-0.813c0.223-0.277,0.528-0.415,0.916-0.415h8.757
		c0.119,0,0.215,0.041,0.29,0.122c0.074,0.084,0.112,0.176,0.112,0.279v0.737c0,0.12-0.038,0.214-0.112,0.29
		c-0.075,0.074-0.171,0.115-0.29,0.115H4.932v8.44h8.555c0.12,0,0.218,0.04,0.291,0.114c0.074,0.072,0.111,0.171,0.111,0.29v0.735
		c0,0.104-0.037,0.198-0.111,0.277c-0.073,0.086-0.171,0.126-0.291,0.126H4.418c-0.357,0-0.652-0.126-0.882-0.38
		c-0.231-0.254-0.347-0.537-0.347-0.85V111.237z"/>
	<path fill="#B209FC" d="M28.275,110.434c0-0.12,0.041-0.219,0.124-0.303c0.084-0.081,0.186-0.122,0.306-0.122h0.748
		c0.122,0,0.224,0.041,0.307,0.122c0.082,0.084,0.124,0.183,0.124,0.303v10.699c0,0.118-0.041,0.218-0.124,0.293
		c-0.081,0.072-0.182,0.11-0.301,0.11h-0.827c-0.106,0-0.229-0.035-0.371-0.101c-0.142-0.068-0.258-0.153-0.347-0.26l-9.4-10.811
		c-0.075-0.072-0.112-0.155-0.112-0.246c0-0.074,0.052-0.11,0.157-0.11h1.362c0.104,0,0.215,0.062,0.335,0.18l8.02,9.27V110.434z
		 M19.989,121.133c0,0.118-0.038,0.218-0.112,0.293c-0.076,0.072-0.173,0.11-0.291,0.11h-0.76c-0.119,0-0.215-0.038-0.289-0.11
		c-0.076-0.075-0.113-0.175-0.113-0.293v-8.777c0-0.09,0.03-0.135,0.09-0.135s0.149,0.065,0.268,0.199l1.05,1.229
		c0.105,0.134,0.158,0.254,0.158,0.358V121.133z"/>
	<path fill="#B209FC" d="M35.11,111.527c0-0.179,0.047-0.355,0.145-0.535c0.097-0.18,0.216-0.338,0.357-0.48
		c0.142-0.143,0.302-0.261,0.481-0.357c0.178-0.096,0.356-0.146,0.536-0.146h8.979c0.178,0,0.357,0.05,0.535,0.146
		c0.18,0.097,0.339,0.215,0.481,0.357c0.141,0.143,0.26,0.301,0.358,0.48c0.097,0.18,0.144,0.356,0.144,0.535v8.49
		c0,0.178-0.047,0.355-0.144,0.534c-0.098,0.181-0.217,0.339-0.358,0.479c-0.142,0.145-0.301,0.262-0.481,0.359
		c-0.178,0.096-0.357,0.146-0.535,0.146H36.63c-0.18,0-0.358-0.05-0.536-0.146c-0.18-0.098-0.339-0.215-0.481-0.359
		c-0.141-0.141-0.26-0.299-0.357-0.479c-0.098-0.179-0.145-0.356-0.145-0.534V111.527z M36.853,119.993h8.533v-8.44h-8.533V119.993z
		"/>
	<path fill="#B209FC" d="M54.142,119.993h7.931c0.105,0,0.195,0.04,0.28,0.124c0.08,0.081,0.12,0.18,0.12,0.3v0.716
		c0,0.104-0.04,0.198-0.12,0.277c-0.085,0.086-0.175,0.126-0.28,0.126h-9.249c-0.104,0-0.196-0.04-0.278-0.126
		c-0.081-0.079-0.121-0.173-0.121-0.277v-10.699c0-0.12,0.04-0.219,0.121-0.303c0.082-0.081,0.175-0.122,0.278-0.122h9.138
		c0.117,0,0.219,0.041,0.301,0.122c0.081,0.084,0.123,0.183,0.123,0.303v0.714c0,0.105-0.042,0.2-0.123,0.28
		c-0.082,0.08-0.184,0.125-0.301,0.125h-7.819V119.993z M55.369,115.17c0-0.118,0.039-0.219,0.114-0.293
		c0.074-0.072,0.17-0.11,0.289-0.11h5.606c0.104,0,0.199,0.038,0.28,0.11c0.081,0.074,0.124,0.175,0.124,0.293v0.69
		c0,0.119-0.043,0.218-0.124,0.292c-0.081,0.072-0.176,0.112-0.28,0.112h-5.606c-0.119,0-0.215-0.04-0.289-0.112
		c-0.075-0.074-0.114-0.173-0.114-0.292V115.17z"/>
	<path fill="#B209FC" d="M67.524,118.206c0.163,0,0.244,0.074,0.244,0.225c0.059,0.431,0.241,0.8,0.548,1.104
		c0.306,0.309,0.705,0.458,1.194,0.458h4.268c0.504,0,0.924-0.179,1.249-0.535c0.328-0.358,0.492-0.773,0.492-1.252
		c0-0.475-0.164-0.884-0.492-1.229c-0.325-0.343-0.745-0.513-1.249-0.513h-4.069c-0.443,0-0.863-0.086-1.247-0.256
		c-0.389-0.174-0.729-0.404-1.018-0.693c-0.29-0.289-0.519-0.634-0.681-1.028c-0.163-0.395-0.248-0.813-0.248-1.264
		c0-0.443,0.085-0.862,0.248-1.247c0.162-0.389,0.391-0.729,0.681-1.019c0.289-0.29,0.629-0.519,1.018-0.693
		c0.384-0.169,0.804-0.256,1.247-0.256h3.979c0.373,0,0.749,0.075,1.129,0.226c0.379,0.146,0.723,0.352,1.027,0.612
		s0.555,0.57,0.749,0.925c0.192,0.359,0.29,0.748,0.29,1.163c0,0.15-0.084,0.225-0.244,0.225h-0.964
		c-0.149,0-0.229-0.074-0.244-0.225c-0.062-0.386-0.228-0.714-0.505-0.983c-0.274-0.268-0.634-0.398-1.083-0.398h-4.222
		c-0.476,0-0.863,0.154-1.159,0.469c-0.3,0.31-0.449,0.689-0.449,1.138c0,0.431,0.146,0.81,0.437,1.139
		c0.293,0.328,0.686,0.491,1.177,0.491h4.121c0.461,0,0.899,0.087,1.31,0.258c0.41,0.17,0.769,0.409,1.075,0.713
		c0.304,0.306,0.55,0.664,0.726,1.073c0.181,0.41,0.27,0.854,0.27,1.328c0,0.479-0.089,0.921-0.27,1.331
		c-0.176,0.41-0.421,0.762-0.726,1.06c-0.307,0.299-0.665,0.536-1.075,0.714c-0.41,0.18-0.848,0.271-1.308,0.271H69.54
		c-0.401,0-0.802-0.08-1.197-0.235s-0.756-0.373-1.075-0.647c-0.321-0.275-0.582-0.604-0.782-0.983
		c-0.204-0.38-0.305-0.785-0.305-1.219c0-0.16,0.085-0.245,0.247-0.245H67.524z"/>
	<path fill="#B209FC" d="M82.289,110.41c0-0.117,0.04-0.216,0.121-0.291c0.083-0.074,0.176-0.11,0.277-0.11h0.939
		c0.104,0,0.199,0.036,0.279,0.11c0.084,0.075,0.125,0.174,0.125,0.291v10.723c0,0.104-0.041,0.198-0.125,0.277
		c-0.08,0.086-0.175,0.126-0.279,0.126h-0.939c-0.102,0-0.194-0.04-0.277-0.126c-0.081-0.079-0.121-0.173-0.121-0.277V110.41z"/>
	<path fill="#B209FC" d="M90.35,118.206c0.165,0,0.248,0.074,0.248,0.225c0.059,0.431,0.241,0.8,0.546,1.104
		c0.304,0.309,0.704,0.458,1.196,0.458h4.264c0.51,0,0.924-0.179,1.254-0.535c0.328-0.358,0.49-0.773,0.49-1.252
		c0-0.475-0.162-0.884-0.49-1.229c-0.33-0.343-0.744-0.513-1.254-0.513h-4.063c-0.449,0-0.864-0.086-1.252-0.256
		c-0.387-0.174-0.725-0.404-1.015-0.693c-0.292-0.289-0.519-0.634-0.684-1.028s-0.244-0.813-0.244-1.264
		c0-0.443,0.079-0.862,0.244-1.247c0.165-0.389,0.392-0.729,0.684-1.019c0.29-0.29,0.628-0.519,1.015-0.693
		c0.388-0.169,0.803-0.256,1.252-0.256h3.975c0.373,0,0.748,0.075,1.129,0.226c0.381,0.146,0.723,0.352,1.026,0.612
		c0.306,0.261,0.556,0.57,0.749,0.925c0.194,0.359,0.289,0.748,0.289,1.163c0,0.15-0.079,0.225-0.244,0.225h-0.959
		c-0.15,0-0.232-0.074-0.246-0.225c-0.061-0.386-0.228-0.714-0.503-0.983c-0.275-0.268-0.638-0.398-1.083-0.398h-4.223
		c-0.477,0-0.863,0.154-1.162,0.469c-0.297,0.31-0.446,0.689-0.446,1.138c0,0.431,0.146,0.81,0.437,1.139
		c0.29,0.328,0.682,0.491,1.177,0.491h4.118c0.464,0,0.9,0.087,1.311,0.258c0.411,0.17,0.77,0.409,1.076,0.713
		c0.306,0.306,0.547,0.664,0.729,1.073c0.179,0.41,0.268,0.854,0.268,1.328c0,0.479-0.089,0.921-0.268,1.331
		c-0.182,0.41-0.422,0.762-0.729,1.06c-0.307,0.299-0.664,0.536-1.075,0.714c-0.41,0.18-0.846,0.271-1.312,0.271h-4.205
		c-0.404,0-0.805-0.08-1.199-0.235c-0.396-0.155-0.752-0.373-1.073-0.647c-0.32-0.275-0.583-0.604-0.784-0.983
		c-0.201-0.38-0.301-0.785-0.301-1.219c0-0.16,0.08-0.245,0.244-0.245H90.35z"/>
	<path fill="#B209FC" d="M110.179,121.536v-0.784l0.578-0.745c0.752-0.954,1.368-1.748,1.368-2.581c0-0.464-0.259-0.792-0.74-0.792
		c-0.367,0-0.661,0.161-0.878,0.294l-0.204-0.911c0.268-0.171,0.769-0.357,1.295-0.357c1.266,0,1.678,0.848,1.678,1.679
		c0,1.089-0.677,1.963-1.35,2.74l-0.346,0.411v0.02h1.777v1.027H110.179z"/>
	<path fill="#B209FC" d="M117.369,118.607c0,2.08-0.758,2.999-1.696,2.999c-1.27,0-1.697-1.456-1.697-2.948
		c0-1.669,0.536-2.999,1.742-2.999C117.056,115.659,117.369,117.221,117.369,118.607z M115.154,118.633
		c-0.019,1.357,0.152,1.973,0.545,1.973c0.365,0,0.49-0.643,0.49-1.973c0-1.24-0.116-1.973-0.49-1.973
		C115.333,116.66,115.146,117.284,115.154,118.633z"/>
	<path fill="#B209FC" d="M119.175,116.828h-0.018l-0.982,0.51l-0.198-0.921l1.332-0.688h1.025v5.807h-1.159V116.828z"/>
	<path fill="#B209FC" d="M121.562,120.025c0-0.725,0.399-1.239,0.874-1.545v-0.016c-0.49-0.322-0.713-0.822-0.713-1.278
		c0-0.946,0.75-1.527,1.643-1.527c0.831,0,1.5,0.564,1.5,1.431c0,0.381-0.15,0.899-0.759,1.284v0.019
		c0.533,0.293,0.894,0.83,0.894,1.518c0,1.073-0.786,1.696-1.741,1.696C122.268,121.606,121.562,120.971,121.562,120.025z
		 M123.865,119.955c0-0.545-0.339-0.902-0.67-1.072c-0.295,0.205-0.502,0.564-0.502,1.008c0,0.502,0.207,0.932,0.609,0.932
		C123.67,120.822,123.865,120.443,123.865,119.955z M122.821,117.149c0,0.411,0.232,0.698,0.571,0.878
		c0.25-0.135,0.398-0.493,0.398-0.834c0-0.392-0.131-0.748-0.471-0.748C122.982,116.445,122.821,116.795,122.821,117.149z"/>
</g>
</svg>
